<svg xmlns="http://www.w3.org/2000/svg" viewBox="0 0 663.8 663.8"><defs><style>.cls-1{fill:#fff;}.cls-2{fill:#2f401e;}.cls-3{fill:#54aad1;opacity:0.15;}.cls-4{fill:#455925;opacity:0.8;}.cls-5{fill:#708c46;opacity:0.6;}</style></defs><title>H-BE Logo</title><g id="Layer_2" data-name="Layer 2"><g id="Layer_1-2" data-name="Layer 1"><circle class="cls-1" cx="331.9" cy="331.9" r="331.9"/><path class="cls-2" d="M587.41,543.74c-36.46-143.71-166.67-250-321.72-250A331.21,331.21,0,0,0,10.19,413.77c36.46,143.71,166.67,250,321.72,250A331.21,331.21,0,0,0,587.41,543.74Z"/><path class="cls-3" d="M211.69,298.1a330.29,330.29,0,0,1,173.22-70.62,330.45,330.45,0,0,1,203.35-69.59q13.63,0,27,1.1C556.93,63.64,451.85,0,331.9,0,148.6,0,0,148.6,0,331.9a332.53,332.53,0,0,0,10.19,81.87A331.54,331.54,0,0,1,211.69,298.1Z"/><path class="cls-4" d="M418.49,225.8C235.92,225.8,87.8,373.2,86.61,555.48A331,331,0,0,0,331.9,663.8c182.56,0,330.68-147.41,331.87-329.69A331,331,0,0,0,418.49,225.8Z"/><path class="cls-5" d="M256.35,489.79a330.34,330.34,0,0,0,48.56,172.92q13.35,1.07,27,1.1c183.3,0,331.9-148.6,331.9-331.9A330.34,330.34,0,0,0,615.24,159q-13.35-1.07-27-1.1C405,157.89,256.35,306.48,256.35,489.79Z"/></g></g></svg>
